<?xml version="1.0" encoding="iso-8859-1"?>
<!-- Generator: Adobe Illustrator 19.0.0, SVG Export Plug-In . SVG Version: 6.00 Build 0)  -->
<svg version="1.1" id="Layer_1" xmlns="http://www.w3.org/2000/svg" xmlns:xlink="http://www.w3.org/1999/xlink" x="0px" y="0px"
	 viewBox="0 0 512 512" style="enable-background:new 0 0 512 512;" xml:space="preserve">
<g>
	<g>
		<path d="M475.429,91.429H296.777c8.722-9.719,14.08-22.51,14.08-36.571C310.857,24.603,286.254,0,256,0
			s-54.857,24.603-54.857,54.857c0,14.062,5.358,26.853,14.08,36.571H36.571c-5.047,0-9.143,4.087-9.143,9.143v64
			c0,5.056,4.096,9.143,9.143,9.143h128.53c-58.03,86.19-70.72,194.039-33.536,292.023l15.314,40.357
			c1.344,3.557,4.745,5.906,8.549,5.906h64c4.288,0,8-2.971,8.923-7.159L256,380.425l27.648,124.407
			c0.923,4.197,4.635,7.168,8.923,7.168h64c3.803,0,7.205-2.35,8.549-5.906l15.314-40.357
			c37.184-97.984,24.503-205.833-33.536-292.023h128.53c5.047,0,9.143-4.087,9.143-9.143v-64
			C484.571,95.515,480.475,91.429,475.429,91.429z M256,18.286c20.169,0,36.571,16.402,36.571,36.571
			c0,20.169-16.402,36.571-36.571,36.571s-36.571-16.402-36.571-36.571C219.429,34.688,235.831,18.286,256,18.286z M466.286,155.429
			H329.143c-3.465,0-6.647,1.966-8.192,5.074c-1.545,3.109-1.198,6.821,0.896,9.591c63.058,83.346,78.565,191.442,41.49,289.17
			l-13.074,34.45h-50.359l-34.981-157.413c-0.923-4.187-4.635-7.159-8.923-7.159c-4.288,0-8,2.971-8.923,7.159l-34.981,157.413
			h-50.359l-13.074-34.459c-37.083-97.719-21.577-205.815,41.481-289.161c2.094-2.77,2.441-6.482,0.896-9.591
			c-1.545-3.109-4.718-5.074-8.183-5.074H45.714v-45.714h420.571V155.429z"/>
	</g>
</g>
<g>
	<g>
		<path d="M319.314,225.07c-1.417-3.419-4.763-5.641-8.457-5.641h-13.925l13.275-33.179c1.125-2.816,0.777-6.007-0.923-8.521
			c-1.701-2.514-4.535-4.014-7.57-4.014h-91.429c-5.047,0-9.143,4.087-9.143,9.143v45.714c0,5.056,4.096,9.143,9.143,9.143h17.216
			l-8.009,72.137c-0.43,3.858,1.627,7.57,5.129,9.253c1.253,0.603,2.606,0.896,3.95,0.896c2.377,0,4.718-0.923,6.473-2.679
			l82.286-82.286C319.945,232.421,320.731,228.489,319.314,225.07z M240.539,285.961l6.263-56.384
			c0.293-2.578-0.539-5.166-2.277-7.104c-1.728-1.938-4.206-3.045-6.811-3.045h-18.286V192h68.782l-13.275,33.179
			c-1.125,2.816-0.777,6.007,0.923,8.521s4.535,4.014,7.57,4.014h5.358L240.539,285.961z"/>
	</g>
</g>
<g>
</g>
<g>
</g>
<g>
</g>
<g>
</g>
<g>
</g>
<g>
</g>
<g>
</g>
<g>
</g>
<g>
</g>
<g>
</g>
<g>
</g>
<g>
</g>
<g>
</g>
<g>
</g>
<g>
</g>
</svg>
